<svg width="36" height="28" viewBox="0 0 36 28" fill="none" xmlns="http://www.w3.org/2000/svg">
<mask id="path-1-inside-1_19_81" fill="white">
<path fill-rule="evenodd" clip-rule="evenodd" d="M24.2601 11.7921C24.8122 11.7921 25.2599 12.24 25.2601 12.7921L25.2638 23.2921C25.2639 23.5683 25.0402 23.7922 24.764 23.7923L18.7641 23.7948C18.4879 23.795 18.2639 23.5711 18.2639 23.295L18.2621 16.795C18.261 14.0336 20.4987 11.7942 23.2601 11.7931L24.2601 11.7921ZM5.2601 17.2922C5.2601 17.016 5.48463 16.7895 5.75944 16.8168C8.28625 17.0676 10.2601 19.1994 10.2601 21.7921V23.2921C10.2601 23.5683 10.0356 23.7947 9.7608 23.7675C7.23386 23.5169 5.26019 21.3849 5.2601 18.7921V17.2922ZM17.7601 18.7921C17.76 21.5533 15.5213 23.7919 12.7601 23.7921H11.7601C11.2079 23.7921 10.7602 23.3443 10.7601 22.7921V14.7921C10.7601 13.1353 12.1032 11.7921 13.7601 11.7921H17.2601C17.5362 11.7921 17.7601 12.016 17.7601 12.2921V18.7921ZM25.7601 12.2922C25.7601 12.016 25.9846 11.7895 26.2594 11.8168C28.7863 12.0676 30.7601 14.1994 30.7601 16.7921V18.2921C30.7601 18.5683 30.5356 18.7947 30.2608 18.7675C27.7339 18.5169 25.7602 16.3849 25.7601 13.7921V12.2922ZM16.9964 4.34556C17.2698 4.30634 17.5115 4.51559 17.5117 4.79174C17.5125 5.78026 17.304 6.72657 16.9282 7.58699C16.8566 7.75104 16.8702 7.9403 16.9646 8.0924C17.4599 8.89038 17.8013 9.79761 17.9419 10.7765C17.9812 11.0498 17.772 11.2915 17.4958 11.2918C16.507 11.2929 15.5602 11.085 14.6996 10.7092C14.5355 10.6376 14.3463 10.6512 14.1942 10.7456C13.3964 11.2407 12.4896 11.5823 11.5111 11.723C11.2378 11.7623 10.996 11.553 10.9957 11.2769C10.9945 10.2881 11.2018 9.34122 11.5774 8.48061C11.649 8.31656 11.6354 8.12735 11.541 7.97525C11.0461 7.17732 10.705 6.26986 10.5645 5.29114C10.5253 5.0178 10.7345 4.7761 11.0107 4.77583C11.9992 4.77487 12.9456 4.98288 13.806 5.35845C13.97 5.43006 14.1592 5.41642 14.3113 5.32205C15.1095 4.82689 16.0173 4.486 16.9964 4.34556Z"/>
</mask>
<path fill-rule="evenodd" clip-rule="evenodd" d="M24.2601 11.7921C24.8122 11.7921 25.2599 12.24 25.2601 12.7921L25.2638 23.2921C25.2639 23.5683 25.0402 23.7922 24.764 23.7923L18.7641 23.7948C18.4879 23.795 18.2639 23.5711 18.2639 23.295L18.2621 16.795C18.261 14.0336 20.4987 11.7942 23.2601 11.7931L24.2601 11.7921ZM5.2601 17.2922C5.2601 17.016 5.48463 16.7895 5.75944 16.8168C8.28625 17.0676 10.2601 19.1994 10.2601 21.7921V23.2921C10.2601 23.5683 10.0356 23.7947 9.7608 23.7675C7.23386 23.5169 5.26019 21.3849 5.2601 18.7921V17.2922ZM17.7601 18.7921C17.76 21.5533 15.5213 23.7919 12.7601 23.7921H11.7601C11.2079 23.7921 10.7602 23.3443 10.7601 22.7921V14.7921C10.7601 13.1353 12.1032 11.7921 13.7601 11.7921H17.2601C17.5362 11.7921 17.7601 12.016 17.7601 12.2921V18.7921ZM25.7601 12.2922C25.7601 12.016 25.9846 11.7895 26.2594 11.8168C28.7863 12.0676 30.7601 14.1994 30.7601 16.7921V18.2921C30.7601 18.5683 30.5356 18.7947 30.2608 18.7675C27.7339 18.5169 25.7602 16.3849 25.7601 13.7921V12.2922ZM16.9964 4.34556C17.2698 4.30634 17.5115 4.51559 17.5117 4.79174C17.5125 5.78026 17.304 6.72657 16.9282 7.58699C16.8566 7.75104 16.8702 7.9403 16.9646 8.0924C17.4599 8.89038 17.8013 9.79761 17.9419 10.7765C17.9812 11.0498 17.772 11.2915 17.4958 11.2918C16.507 11.2929 15.5602 11.085 14.6996 10.7092C14.5355 10.6376 14.3463 10.6512 14.1942 10.7456C13.3964 11.2407 12.4896 11.5823 11.5111 11.723C11.2378 11.7623 10.996 11.553 10.9957 11.2769C10.9945 10.2881 11.2018 9.34122 11.5774 8.48061C11.649 8.31656 11.6354 8.12735 11.541 7.97525C11.0461 7.17732 10.705 6.26986 10.5645 5.29114C10.5253 5.0178 10.7345 4.7761 11.0107 4.77583C11.9992 4.77487 12.9456 4.98288 13.806 5.35845C13.97 5.43006 14.1592 5.41642 14.3113 5.32205C15.1095 4.82689 16.0173 4.486 16.9964 4.34556Z" fill="black"/>
<path d="M24.2601 11.7921L24.2602 10.7921L24.2591 10.7921L24.2601 11.7921ZM25.2601 12.7921L26.2601 12.7918V12.7917L25.2601 12.7921ZM18.2621 16.795L19.2621 16.7948V16.7947L18.2621 16.795ZM23.2601 11.7931L23.2605 12.7931L23.2611 12.7931L23.2601 11.7931ZM5.2601 18.7921H4.2601V18.7922L5.2601 18.7921ZM17.7601 18.7921L18.7601 18.7922V18.7921H17.7601ZM12.7601 23.7921V24.7921H12.7602L12.7601 23.7921ZM10.7601 22.7921H9.7601V22.7923L10.7601 22.7921ZM25.7601 13.7921H24.7601V13.7922L25.7601 13.7921ZM14.3113 5.32205L14.8385 6.1718L14.3113 5.32205ZM10.5645 5.29114L9.57469 5.43323L10.5645 5.29114ZM17.9419 10.7765L18.9318 10.6342L17.9419 10.7765ZM17.4958 11.2918L17.4969 12.2918L17.4958 11.2918ZM16.9282 7.58699L17.8446 7.98721L16.9282 7.58699ZM16.9646 8.0924L16.1149 8.61975L16.9646 8.0924ZM17.5117 4.79174L16.5117 4.79255L17.5117 4.79174ZM26.2594 11.8168L26.1607 12.8119L26.2594 11.8168ZM5.75944 16.8168L5.8582 15.8217L5.75944 16.8168ZM30.2608 18.7675L30.1621 19.7626L30.2608 18.7675ZM9.7608 23.7675L9.85947 22.7724L9.7608 23.7675ZM11.5774 8.48061L12.4939 8.88061L11.5774 8.48061ZM11.541 7.97525L10.6913 8.50239L11.541 7.97525ZM18.7641 23.7948L18.7645 24.7948L18.7641 23.7948ZM14.6996 10.7092L14.2994 11.6257L14.6996 10.7092ZM14.1942 10.7456L13.6669 9.89593L14.1942 10.7456ZM11.5111 11.723L11.6534 12.7128L11.5111 11.723ZM10.9957 11.2769L9.99571 11.2781L10.9957 11.2769ZM25.2638 23.2921L26.2638 23.2918L25.2638 23.2921ZM24.764 23.7923L24.7636 22.7923L24.764 23.7923ZM24.2601 11.7921L24.26 12.7921L24.2601 12.7925L25.2601 12.7921L26.2601 12.7917C26.2597 11.6879 25.3647 10.7922 24.2602 10.7921L24.2601 11.7921ZM25.2601 12.7921L24.2601 12.7925L24.2638 23.2925L25.2638 23.2921L26.2638 23.2918L26.2601 12.7918L25.2601 12.7921ZM24.764 23.7923L24.7636 22.7923L18.7637 22.7948L18.7641 23.7948L18.7645 24.7948L24.7645 24.7923L24.764 23.7923ZM18.2639 23.295L19.2639 23.2947L19.2621 16.7948L18.2621 16.795L17.2621 16.7953L17.2639 23.2953L18.2639 23.295ZM18.2621 16.795L19.2621 16.7947C19.2612 14.5855 21.0513 12.794 23.2605 12.7931L23.2601 11.7931L23.2597 10.7931C19.946 10.7944 17.2607 13.4817 17.2621 16.7954L18.2621 16.795ZM23.2601 11.7931L23.2611 12.7931L24.2611 12.7921L24.2601 11.7921L24.2591 10.7921L23.2591 10.7931L23.2601 11.7931ZM5.75944 16.8168L5.66069 17.8119C7.68119 18.0124 9.2601 19.7186 9.2601 21.7921H10.2601H11.2601C11.2601 18.6801 8.89131 16.1227 5.8582 15.8217L5.75944 16.8168ZM10.2601 21.7921H9.2601V23.2921H10.2601H11.2601V21.7921H10.2601ZM9.7608 23.7675L9.85947 22.7724C7.83902 22.572 6.26017 20.8658 6.2601 18.7921L5.2601 18.7921L4.2601 18.7922C4.26021 21.9041 6.62871 24.4618 9.66213 24.7626L9.7608 23.7675ZM5.2601 18.7921H6.2601V17.2922H5.2601H4.2601V18.7921H5.2601ZM17.7601 18.7921L16.7601 18.7921C16.76 21.001 14.969 22.7919 12.76 22.7921L12.7601 23.7921L12.7602 24.7921C16.0735 24.7918 18.76 22.1057 18.7601 18.7922L17.7601 18.7921ZM12.7601 23.7921V22.7921H11.7601V23.7921V24.7921H12.7601V23.7921ZM11.7601 23.7921V22.7921V22.7919L10.7601 22.7921L9.7601 22.7923C9.7603 23.8965 10.6554 24.7921 11.7601 24.7921V23.7921ZM10.7601 22.7921H11.7601V14.7921H10.7601H9.7601V22.7921H10.7601ZM10.7601 14.7921H11.7601C11.7601 13.6875 12.6555 12.7921 13.7601 12.7921V11.7921V10.7921C11.551 10.7921 9.7601 12.583 9.7601 14.7921H10.7601ZM13.7601 11.7921V12.7921H17.2601V11.7921V10.7921H13.7601V11.7921ZM17.7601 12.2921H16.7601V18.7921H17.7601H18.7601V12.2921H17.7601ZM26.2594 11.8168L26.1607 12.8119C28.1812 13.0124 29.7601 14.7186 29.7601 16.7921H30.7601H31.7601C31.7601 13.6801 29.3913 11.1227 26.3582 10.8217L26.2594 11.8168ZM30.7601 16.7921H29.7601V18.2921H30.7601H31.7601V16.7921H30.7601ZM30.2608 18.7675L30.3595 17.7724C28.339 17.572 26.7602 15.8658 26.7601 13.7921L25.7601 13.7921L24.7601 13.7922C24.7602 16.9041 27.1287 19.4618 30.1621 19.7626L30.2608 18.7675ZM25.7601 13.7921H26.7601V12.2922H25.7601H24.7601V13.7921H25.7601ZM17.5117 4.79174L16.5117 4.79255C16.5124 5.63882 16.334 6.44889 16.0118 7.18677L16.9282 7.58699L17.8446 7.98721C18.2739 7.00425 18.5126 5.92169 18.5117 4.79092L17.5117 4.79174ZM16.9646 8.0924L16.1149 8.61975C16.5395 9.30371 16.8317 10.0803 16.9521 10.9187L17.9419 10.7765L18.9318 10.6342C18.771 9.51491 18.3803 8.47704 17.8142 7.56505L16.9646 8.0924ZM17.4958 11.2918L17.4948 10.2918C16.6478 10.2927 15.8374 10.1149 15.0998 9.7928L14.6996 10.7092L14.2994 11.6257C15.2831 12.0552 16.3662 12.293 17.4969 12.2918L17.4958 11.2918ZM14.1942 10.7456L13.6669 9.89593C12.9829 10.3204 12.2067 10.6127 11.3688 10.7331L11.5111 11.723L11.6534 12.7128C12.7725 12.5519 13.8099 12.161 14.7215 11.5953L14.1942 10.7456ZM10.9957 11.2769L11.9957 11.2757C11.9947 10.4284 12.1721 9.61794 12.4939 8.88061L11.5774 8.48061L10.6609 8.0806C10.2315 9.0645 9.99434 10.1477 9.99571 11.2781L10.9957 11.2769ZM11.541 7.97525L12.3908 7.44811C11.9667 6.76435 11.6748 5.98751 11.5544 5.14905L10.5645 5.29114L9.57469 5.43323C9.73531 6.5522 10.1255 7.5903 10.6913 8.50239L11.541 7.97525ZM11.0107 4.77583L11.0117 5.77583C11.8581 5.77501 12.6683 5.95297 13.4059 6.27494L13.806 5.35845L14.206 4.44196C13.2228 4.01279 12.1402 3.77473 11.0097 3.77583L11.0107 4.77583ZM14.3113 5.32205L14.8385 6.1718C15.5223 5.74759 16.2995 5.45577 17.1384 5.33542L16.9964 4.34556L16.8544 3.35569C15.7352 3.51624 14.6967 3.90618 13.7841 4.4723L14.3113 5.32205ZM13.806 5.35845L13.4059 6.27494C13.8713 6.47809 14.4072 6.43941 14.8385 6.1718L14.3113 5.32205L13.7841 4.4723C13.9113 4.39342 14.0687 4.38202 14.206 4.44196L13.806 5.35845ZM10.5645 5.29114L11.5544 5.14905C11.6016 5.47785 11.3441 5.77551 11.0117 5.77583L11.0107 4.77583L11.0097 3.77583C10.125 3.7767 9.44901 4.55774 9.57469 5.43323L10.5645 5.29114ZM17.9419 10.7765L16.9521 10.9187C16.9049 10.5898 17.1625 10.2922 17.4948 10.2918L17.4958 11.2918L17.4969 12.2918C18.3815 12.2909 19.0576 11.5099 18.9318 10.6342L17.9419 10.7765ZM16.9282 7.58699L16.0118 7.18677C15.8085 7.65226 15.8472 8.18831 16.1149 8.61975L16.9646 8.0924L17.8142 7.56505C17.8932 7.69229 17.9046 7.84983 17.8446 7.98721L16.9282 7.58699ZM17.5117 4.79174L18.5117 4.79092C18.511 3.90606 17.7298 3.23011 16.8544 3.35569L16.9964 4.34556L17.1384 5.33542C16.8097 5.38257 16.512 5.12512 16.5117 4.79255L17.5117 4.79174ZM17.2601 11.7921V12.7921C16.984 12.7921 16.7601 12.5683 16.7601 12.2921H17.7601H18.7601C18.7601 11.4637 18.0885 10.7921 17.2601 10.7921V11.7921ZM26.2594 11.8168L26.3582 10.8217C25.4288 10.7294 24.7601 11.4933 24.7601 12.2922H25.7601H26.7601C26.7601 12.5387 26.5405 12.8496 26.1607 12.8119L26.2594 11.8168ZM5.75944 16.8168L5.8582 15.8217C4.92875 15.7294 4.2601 16.4933 4.2601 17.2922H5.2601H6.2601C6.2601 17.5387 6.04051 17.8496 5.66069 17.8119L5.75944 16.8168ZM30.7601 18.2921H29.7601C29.7601 18.0456 29.9797 17.7347 30.3595 17.7724L30.2608 18.7675L30.1621 19.7626C31.0915 19.8548 31.7601 19.0909 31.7601 18.2921H30.7601ZM10.2601 23.2921H9.2601C9.2601 23.0456 9.47966 22.7347 9.85947 22.7724L9.7608 23.7675L9.66213 24.7626C10.5915 24.8548 11.2601 24.0909 11.2601 23.2921H10.2601ZM11.5774 8.48061L12.4939 8.88061C12.697 8.41535 12.6584 7.87953 12.3908 7.44811L11.541 7.97525L10.6913 8.50239C10.6123 8.37516 10.601 8.21777 10.6609 8.0806L11.5774 8.48061ZM18.7641 23.7948L18.7637 22.7948C19.0398 22.7947 19.2638 23.0185 19.2639 23.2947L18.2639 23.295L17.2639 23.2953C17.2641 24.1238 17.936 24.7952 18.7645 24.7948L18.7641 23.7948ZM14.6996 10.7092L15.0998 9.7928C14.6344 9.5896 14.0984 9.62813 13.6669 9.89593L14.1942 10.7456L14.7215 11.5953C14.5942 11.6743 14.4367 11.6856 14.2994 11.6257L14.6996 10.7092ZM11.5111 11.723L11.3688 10.7331C11.6978 10.6858 11.9953 10.9436 11.9957 11.2757L10.9957 11.2769L9.99571 11.2781C9.99678 12.1625 10.7777 12.8387 11.6534 12.7128L11.5111 11.723ZM25.2638 23.2921L24.2638 23.2925C24.2637 23.0164 24.4875 22.7924 24.7636 22.7923L24.764 23.7923L24.7645 24.7923C25.5928 24.792 26.2641 24.1202 26.2638 23.2918L25.2638 23.2921Z" fill="black" mask="url(#path-1-inside-1_19_81)"/>
<path d="M16.6063 1.52228C18.5275 1.30884 20.2581 2.69292 20.4716 4.61407L20.7274 6.91583C20.7313 6.95072 20.7388 6.98506 20.7499 7.01837L21.2264 8.45001C21.2945 8.65415 21.4859 8.79176 21.701 8.79181H29.0946C29.2872 8.79184 29.4798 8.808 29.6698 8.83966L30.8348 9.034C32.5225 9.31527 33.7596 10.7752 33.7596 12.4861V15.5936C33.7596 15.6265 33.763 15.6599 33.7694 15.6922L34.1698 17.6942C34.6463 20.0775 32.6082 22.209 30.2059 21.8397L28.8358 21.6287C28.533 21.5821 28.2597 21.8165 28.2596 22.1229V22.7918C28.2596 24.7248 26.6926 26.2918 24.7596 26.2918H19.4579C19.2274 26.2918 18.9974 26.2686 18.7714 26.2234L16.8573 25.8416C16.7928 25.8287 16.7265 25.8287 16.662 25.8416L14.7479 26.2234C14.5219 26.2686 14.2919 26.2918 14.0614 26.2918H5.75964C3.82665 26.2918 2.25964 24.7248 2.25964 22.7918V20.5858C2.25964 20.5371 2.25214 20.4878 2.23816 20.4412L1.65125 18.4852C0.949365 16.1456 2.79998 13.8246 5.23718 13.9871L7.59656 14.1443C7.85946 14.1619 8.08402 13.974 8.1239 13.7254L8.12878 13.616L7.78015 7.68146C7.77719 7.63151 7.76647 7.58182 7.7489 7.53497L7.36804 6.52032C6.51047 4.23243 8.20199 1.79198 10.6454 1.79181H14.1727L16.6063 1.52228Z" stroke="black" stroke-width="3"/>
</svg>
